<mxfile host="app.diagrams.net" agent="Mozilla/5.0 (Windows NT 10.0; Win64; x64) AppleWebKit/537.36 (KHTML, like Gecko) Chrome/129.0.0.0 Safari/537.36" version="24.7.17">
  <diagram name="Page-1" id="6t3nQpitx2eooeNmN7rc">
    <mxGraphModel dx="1434" dy="746" grid="1" gridSize="10" guides="1" tooltips="1" connect="1" arrows="1" fold="1" page="1" pageScale="1" pageWidth="850" pageHeight="1100" math="0" shadow="0">
      <root>
        <mxCell id="0" />
        <mxCell id="1" parent="0" />
        <mxCell id="1cDkqIvhgZ2fimOhe5Jv-1" value="Start" style="whiteSpace=wrap;strokeWidth=2;" vertex="1" parent="1">
          <mxGeometry x="181" y="20" width="96" height="49" as="geometry" />
        </mxCell>
        <mxCell id="1cDkqIvhgZ2fimOhe5Jv-2" value="Admin inputs new user details" style="whiteSpace=wrap;strokeWidth=2;" vertex="1" parent="1">
          <mxGeometry x="117" y="119" width="225" height="67" as="geometry" />
        </mxCell>
        <mxCell id="1cDkqIvhgZ2fimOhe5Jv-3" value="Is email valid?" style="rhombus;strokeWidth=2;whiteSpace=wrap;" vertex="1" parent="1">
          <mxGeometry x="154" y="236" width="150" height="150" as="geometry" />
        </mxCell>
        <mxCell id="1cDkqIvhgZ2fimOhe5Jv-4" value="Does email already exist?" style="rhombus;strokeWidth=2;whiteSpace=wrap;" vertex="1" parent="1">
          <mxGeometry x="33" y="458" width="230" height="230" as="geometry" />
        </mxCell>
        <mxCell id="1cDkqIvhgZ2fimOhe5Jv-5" value="Show error message" style="whiteSpace=wrap;strokeWidth=2;" vertex="1" parent="1">
          <mxGeometry x="301" y="761" width="203" height="49" as="geometry" />
        </mxCell>
        <mxCell id="1cDkqIvhgZ2fimOhe5Jv-6" value="Create user account" style="whiteSpace=wrap;strokeWidth=2;" vertex="1" parent="1">
          <mxGeometry x="45" y="761" width="205" height="49" as="geometry" />
        </mxCell>
        <mxCell id="1cDkqIvhgZ2fimOhe5Jv-7" value="Send confirmation message" style="whiteSpace=wrap;strokeWidth=2;" vertex="1" parent="1">
          <mxGeometry x="20" y="860" width="256" height="49" as="geometry" />
        </mxCell>
        <mxCell id="1cDkqIvhgZ2fimOhe5Jv-8" value="End" style="whiteSpace=wrap;strokeWidth=2;" vertex="1" parent="1">
          <mxGeometry x="232" y="959" width="86" height="49" as="geometry" />
        </mxCell>
        <mxCell id="1cDkqIvhgZ2fimOhe5Jv-9" value="" style="curved=1;startArrow=none;endArrow=block;exitX=0.5;exitY=1;entryX=0.5;entryY=0;rounded=0;" edge="1" parent="1" source="1cDkqIvhgZ2fimOhe5Jv-1" target="1cDkqIvhgZ2fimOhe5Jv-2">
          <mxGeometry relative="1" as="geometry">
            <Array as="points" />
          </mxGeometry>
        </mxCell>
        <mxCell id="1cDkqIvhgZ2fimOhe5Jv-10" value="" style="curved=1;startArrow=none;endArrow=block;exitX=0.5;exitY=0.99;entryX=0.5;entryY=0;rounded=0;" edge="1" parent="1" source="1cDkqIvhgZ2fimOhe5Jv-2" target="1cDkqIvhgZ2fimOhe5Jv-3">
          <mxGeometry relative="1" as="geometry">
            <Array as="points" />
          </mxGeometry>
        </mxCell>
        <mxCell id="1cDkqIvhgZ2fimOhe5Jv-11" value="Yes" style="curved=1;startArrow=none;endArrow=block;exitX=0.14;exitY=1;entryX=0.5;entryY=0;rounded=0;" edge="1" parent="1" source="1cDkqIvhgZ2fimOhe5Jv-3" target="1cDkqIvhgZ2fimOhe5Jv-4">
          <mxGeometry relative="1" as="geometry">
            <Array as="points">
              <mxPoint x="148" y="422" />
            </Array>
          </mxGeometry>
        </mxCell>
        <mxCell id="1cDkqIvhgZ2fimOhe5Jv-12" value="No" style="curved=1;startArrow=none;endArrow=block;exitX=1;exitY=0.93;entryX=0.41;entryY=0.01;rounded=0;" edge="1" parent="1" source="1cDkqIvhgZ2fimOhe5Jv-3" target="1cDkqIvhgZ2fimOhe5Jv-5">
          <mxGeometry relative="1" as="geometry">
            <Array as="points">
              <mxPoint x="356" y="422" />
              <mxPoint x="356" y="725" />
            </Array>
          </mxGeometry>
        </mxCell>
        <mxCell id="1cDkqIvhgZ2fimOhe5Jv-13" value="Yes" style="curved=1;startArrow=none;endArrow=block;exitX=1;exitY=0.78;entryX=0.53;entryY=0.01;rounded=0;" edge="1" parent="1" source="1cDkqIvhgZ2fimOhe5Jv-4" target="1cDkqIvhgZ2fimOhe5Jv-5">
          <mxGeometry relative="1" as="geometry">
            <Array as="points">
              <mxPoint x="419" y="725" />
            </Array>
          </mxGeometry>
        </mxCell>
        <mxCell id="1cDkqIvhgZ2fimOhe5Jv-14" value="No" style="curved=1;startArrow=none;endArrow=block;exitX=0.5;exitY=1;entryX=0.5;entryY=0.01;rounded=0;" edge="1" parent="1" source="1cDkqIvhgZ2fimOhe5Jv-4" target="1cDkqIvhgZ2fimOhe5Jv-6">
          <mxGeometry relative="1" as="geometry">
            <Array as="points" />
          </mxGeometry>
        </mxCell>
        <mxCell id="1cDkqIvhgZ2fimOhe5Jv-15" value="" style="curved=1;startArrow=none;endArrow=block;exitX=0.5;exitY=1.01;entryX=0.5;entryY=0.01;rounded=0;" edge="1" parent="1" source="1cDkqIvhgZ2fimOhe5Jv-6" target="1cDkqIvhgZ2fimOhe5Jv-7">
          <mxGeometry relative="1" as="geometry">
            <Array as="points" />
          </mxGeometry>
        </mxCell>
        <mxCell id="1cDkqIvhgZ2fimOhe5Jv-16" value="" style="curved=1;startArrow=none;endArrow=block;exitX=0.5;exitY=1.01;entryX=0;entryY=0.17;rounded=0;" edge="1" parent="1" source="1cDkqIvhgZ2fimOhe5Jv-7" target="1cDkqIvhgZ2fimOhe5Jv-8">
          <mxGeometry relative="1" as="geometry">
            <Array as="points">
              <mxPoint x="148" y="934" />
            </Array>
          </mxGeometry>
        </mxCell>
        <mxCell id="1cDkqIvhgZ2fimOhe5Jv-17" value="" style="curved=1;startArrow=none;endArrow=block;exitX=0.5;exitY=1.01;entryX=1;entryY=0.17;rounded=0;" edge="1" parent="1" source="1cDkqIvhgZ2fimOhe5Jv-5" target="1cDkqIvhgZ2fimOhe5Jv-8">
          <mxGeometry relative="1" as="geometry">
            <Array as="points">
              <mxPoint x="402" y="934" />
            </Array>
          </mxGeometry>
        </mxCell>
      </root>
    </mxGraphModel>
  </diagram>
</mxfile>
